<svg data-name="Layer 1" id="Layer_1" viewBox="0 0 505.2 505.09" xmlns="http://www.w3.org/2000/svg">
    <path
        d="M267.28,505.09H237.4c-3.35-1-7.79-.93-11.45-1.15-1-1-2.31-.36-3.45-.54-3.15-.35-6.24-1.25-9.4-1.13C74.3,480.61-21,346.3,4,208.29c1.27-.87-.15-2.61,1.12-3.48C27.68,75.51,158-17.43,287,2.76,393.34,15.18,484.76,103.7,501.25,209.22c2.86,9.88,2.39,21.24,3.95,30.89v27.63C497.19,394.5,394.55,497.48,267.28,505.09ZM252.8,473c11.28.48,22.14-1.3,33.17-2.26,1.23-1.22,3.11.1,4.33-1.13C407.65,451,488.42,334.12,468,217.93,453,126.72,374,48.66,281,38.84c-16.58-3.14-34.09-1.69-51-1.11a97.88,97.88,0,0,1-12.55,1.68c-1.07,1.37-3-.25-4,1.12C101.56,57.88,19.45,171.84,36.6,283,48.25,388.63,146.41,475,252.8,473Z"
        fill="#f59321" />
    <path
        d="M389.69,314.53c-21.66-.08-42.68-.92-64.32-.56-1.57,12.35,14.32,18.65,19.8,7.39h42.7c-7.42,44-75.21,51-95.74,13.17v23.41c-50.19,3.32-38.75-15.26-40-54.21.56-11.92-14.09-17.38-23.08-11.18-7.63,4.64-4.55,14.47-5.14,21.91.41,14.58-.42,28.74-.67,43.38-74.66,9.2-15-60.89-53.49-68.08-7.56-.06-14.9,4.78-14.64,13.18q.06,26.07,0,52.14c0,.95.53,2.14-1.11,2.86-12.85.24-26.37-.4-39.4-.67V255.9c10,0,20,0,30.05,0,6.61-.19,11.29,6.82,10.48,12.95,15.63-20.33,49.57-17.15,62.66,4.19,17.46-26.91,64.91-22.53,72.55,10.08C314.78,231.47,402.24,255.84,389.69,314.53Zm-39.91-18.08c-.5-13.41-23.47-13.42-23.81,0Z"
        fill="#f59321" />
    <path
        d="M170.26,151.6v77.17H136V151.53H93.56c4.41-8.63,5.74-19.18,13.87-25.13,33.28-7.61,70-.77,104.41-3,1,11.32-7.06,22.1-17.31,26.26C186.79,152.79,178.61,151.27,170.26,151.6Z"
        fill="#262223" />
    <path
        d="M215.56,170.4c-8.22,7.95-21.59,4.94-32.15,5.44-2-18.14,18.37-25.33,33.19-25.43,13.87-1.12,31.35-1.51,41.59,9.39,11.35,12.95-1,60.4,9,67.54v1.5c-9.56-1.63-30.11,5.08-32.87-7.3-14.88,12.08-45.82,15.81-54.53-5.59-6-19.71,8.45-30.8,26.6-32.71,7.14-1.87,24.38.15,26.39-8.59C231.09,167.4,221.65,167.14,215.56,170.4Zm17.33,25.12c-6.69,2-13.59,2.57-19.81,5.7C198.82,215.61,236,222.31,232.89,195.52Z"
        fill="#262223" />
    <path
        d="M302.53,228.82H268.88l27.23-40c-8.28-12.1-17.17-24.19-24.88-36.44,10.8.58,23.23-2.86,33,2.55,5.46,3.92,6.41,10.82,10.14,16,3.83-6,6.21-12.74,10-18.65h33.21c-8,12.63-18.7,24-25.53,37l25.8,39.46c-26.54-.37-32.39,5.74-44.63-21.35Z"
        fill="#262223" />
    <path
        d="M185.87,392.4c2.76-5.07,10.64-7.45,15.67-4.46,3.42,2.14,5.34,6.12,9,8.19a65.16,65.16,0,0,0,31.6,11.43c17.5,3.25,36.91-3.85,51.56-12.51,4.4-2.39,7.69-7.19,13.05-7.26a11.81,11.81,0,0,1,11.93,8.89c2.18,8.42-5.47,13.46-11.5,17.45-15.3,10.08-33.16,15.72-51,17.63-21.1.63-43.18-4.86-60.32-17.53C189.29,409,180.6,401.54,185.87,392.4Z"
        fill="#f59321" />
    <path
        d="M390.19,152.16c0,20.28-.07,40.49.06,60.76a17,17,0,0,1-2.41,8.32c-5.83,10.19-18.21,7.22-28.1,7.6,0-21.47,0-42.91,0-64.38C360,148.19,379,152.73,390.19,152.16Z"
        fill="#262223" />
    <path d="M359.74,146c-1.69-28.26,3.67-29.84,30.45-28.75C391.83,145,386.12,147,359.74,146Z"
        fill="#262223" />
</svg>